<?xml version="1.0" encoding="utf-8"?>
<!-- Generator: Adobe Illustrator 15.0.2, SVG Export Plug-In . SVG Version: 6.00 Build 0)  -->
<!DOCTYPE svg PUBLIC "-//W3C//DTD SVG 1.1//EN" "http://www.w3.org/Graphics/SVG/1.1/DTD/svg11.dtd">
<svg version="1.1" id="Layer_1" xmlns="http://www.w3.org/2000/svg" xmlns:xlink="http://www.w3.org/1999/xlink" x="0px" y="0px"
	 width="781.356px" height="792px" viewBox="0 0 781.356 792" enable-background="new 0 0 781.356 792" xml:space="preserve">
<g>
	<g>
		<circle cx="390.709" cy="396.334" r="384.73"/>
		<circle fill="#4D4D4F" stroke="#000000" stroke-miterlimit="10" cx="390.206" cy="396.334" r="379"/>
		<path fill="#4D4D4F" stroke="#000000" stroke-miterlimit="10" d="M760.683,396.334c0,204.343-165.656,370.001-370,370.001
			c-204.343,0-370-165.658-370-370.001c0-204.344,165.657-370.002,370-370.002C595.027,26.332,760.683,191.99,760.683,396.334z"/>
		<path fill="#4D4D4F" stroke="#000000" stroke-miterlimit="10" d="M747.657,396.334c0,197.157-159.842,357.001-357,357.001
			c-197.157,0-357-159.844-357-357.001c0-197.158,159.843-357.002,357-357.002C587.815,39.332,747.657,199.176,747.657,396.334z"/>
		<path fill="#4D4D4F" stroke="#000000" stroke-miterlimit="10" d="M734.629,396.334c0,189.972-154.027,344.001-344,344.001
			c-189.971,0-344-154.029-344-344.001c0-189.975,154.029-344.002,344-344.002C580.602,52.332,734.629,206.359,734.629,396.334z"/>
		<path fill="#4D4D4F" stroke="#000000" stroke-miterlimit="10" d="M721.103,396.334c0,182.513-147.986,330.501-330.5,330.501
			c-182.513,0-330.5-147.988-330.5-330.501c0-182.514,147.987-330.502,330.5-330.502C573.117,65.832,721.103,213.82,721.103,396.334
			z"/>
		<path fill="#4D4D4F" stroke="#000000" stroke-miterlimit="10" d="M707.577,396.334c0,175.048-141.951,317.001-317,317.001
			c-175.048,0-317-141.953-317-317.001c0-175.062,141.952-317.002,317-317.002C565.625,79.332,707.577,221.271,707.577,396.334z"/>
		<path fill="#4D4D4F" stroke="#000000" stroke-miterlimit="10" d="M696.414,396.334c0,168.897-136.965,305.864-305.863,305.864
			c-168.897,0-305.863-136.967-305.863-305.864c0-168.898,136.966-305.865,305.863-305.865
			C559.449,90.469,696.414,227.436,696.414,396.334z"/>
		<path fill="#4D4D4F" stroke="#000000" stroke-miterlimit="10" d="M685.25,396.334c0,162.747-131.979,294.728-294.727,294.728
			c-162.747,0-294.727-131.98-294.727-294.728c0-162.75,131.979-294.729,294.727-294.729
			C553.272,101.605,685.25,233.584,685.25,396.334z"/>
		<path fill="#4D4D4F" stroke="#000000" stroke-miterlimit="10" d="M673.684,396.308c0,156.358-126.798,283.194-283.181,283.194
			c-156.349,0-283.193-126.836-283.193-283.194c0-156.375,126.845-283.143,283.193-283.143
			C546.886,113.165,673.684,239.933,673.684,396.308z"/>
		<path fill="#4D4D4F" stroke="#000000" stroke-miterlimit="10" d="M661.971,396.334c0,149.898-121.602,271.501-271.5,271.501
			s-271.5-121.603-271.5-271.501c0-149.932,121.602-271.502,271.5-271.502S661.971,246.402,661.971,396.334z"/>
		<path fill="#4D4D4F" stroke="#000000" stroke-miterlimit="10" d="M652.407,396.334c0,144.637-117.324,261.964-261.963,261.964
			c-144.637,0-261.963-117.327-261.963-261.964c0-144.638,117.326-261.965,261.963-261.965
			C535.083,134.369,652.407,251.696,652.407,396.334z"/>
		<path fill="#4D4D4F" stroke="#000000" stroke-miterlimit="10" d="M642.843,396.334c0,139.375-113.05,252.427-252.426,252.427
			c-139.375,0-252.426-113.052-252.426-252.427c0-139.378,113.051-252.428,252.426-252.428
			C529.793,143.906,642.843,256.956,642.843,396.334z"/>
		<path fill="#4D4D4F" stroke="#000000" stroke-miterlimit="10" d="M632.953,396.289c0,133.917-108.611,242.574-242.545,242.574
			c-133.902,0-242.578-108.657-242.578-242.574c0-133.936,108.676-242.485,242.578-242.485
			C524.341,153.804,632.953,262.354,632.953,396.289z"/>
		<path fill="#4D4D4F" stroke="#000000" stroke-miterlimit="10" d="M623.365,396.334c0,128.618-104.381,233.001-233,233.001
			c-128.618,0-233-104.383-233-233.001c0-128.671,104.382-233.002,233-233.002C518.984,163.332,623.365,267.663,623.365,396.334z"/>
		<path fill="#4D4D4F" stroke="#000000" stroke-miterlimit="10" d="M615.155,396.334c0,124.108-100.707,224.817-224.816,224.817
			c-124.108,0-224.816-100.709-224.816-224.817c0-124.12,100.708-224.818,224.816-224.818
			C514.448,171.516,615.155,272.214,615.155,396.334z"/>
		<path fill="#4D4D4F" stroke="#000000" stroke-miterlimit="10" d="M606.945,396.334c0,119.599-97.033,216.634-216.633,216.634
			c-119.599,0-216.633-97.035-216.633-216.634c0-119.602,97.034-216.635,216.633-216.635
			C509.912,179.699,606.945,276.732,606.945,396.334z"/>
		<path fill="#4D4D4F" stroke="#000000" stroke-miterlimit="10" d="M598.457,396.291c0,114.933-93.207,208.175-208.155,208.175
			c-114.914,0-208.188-93.242-208.188-208.175c0-114.949,93.273-208.09,208.188-208.09
			C505.25,188.201,598.457,281.342,598.457,396.291z"/>
	</g>
	<circle cx="390.232" cy="396.333" r="8.25"/>
</g>
<path fill="#070808" stroke="#000000" stroke-miterlimit="10" d="M589.08,396.308c0,109.745-89.061,198.829-198.815,198.829
	c-109.724,0-198.827-89.084-198.827-198.829c0-109.769,89.104-198.777,198.827-198.777
	C500.019,197.53,589.08,286.539,589.08,396.308z"/>
<g>
	<defs>
		<path id="SVGID_1_" d="M589.08,396.308c0,109.745-89.061,198.829-198.815,198.829c-109.724,0-198.827-89.084-198.827-198.829
			c0-109.769,89.104-198.777,198.827-198.777C500.019,197.53,589.08,286.539,589.08,396.308z"/>
	</defs>
	<clipPath id="SVGID_2_">
		<use xlink:href="#SVGID_1_"  overflow="visible"/>
	</clipPath>
	<g clip-path="url(#SVGID_2_)">
		<g>
			<path fill-rule="evenodd" clip-rule="evenodd" d="M589.407,274c0,1.333,0,2.667,0,4c-3.8,1.534-6.639,4.027-11,5
				C581.841,279.769,584.785,276.044,589.407,274z"/>
			<path fill-rule="evenodd" clip-rule="evenodd" fill="#FFFFFF" d="M589.407,299c0,1.667,0,3.333,0,5c-1.278,0.055-1.385,1.282-3,1
				C587.74,303.333,586.042,298.636,589.407,299z"/>
			<path fill-rule="evenodd" clip-rule="evenodd" fill="#FFFFFF" d="M589.407,310c0,1.334,0,2.666,0,4c-3.907-1.291-3.907,3.291,0,2
				c0,6,0,12,0,18c-7.403,1.604-17.427,4.77-26,2c7.436-4.184,10.051-13.346,16-19c2.874-2.732,7.6-2.638,9-7
				C588.74,310,589.074,310,589.407,310z"/>
			<path fill-rule="evenodd" clip-rule="evenodd" d="M589.407,314c0,0.666,0,1.334,0,2C585.5,317.291,585.5,312.709,589.407,314z"/>
			<path fill-rule="evenodd" clip-rule="evenodd" fill="#FFFFFF" d="M579.407,343c-3.91,5.424-13.089,5.578-20,8
				c4.728,6.119,15.924-0.319,23-1c-5.42,5.247-14.06,7.273-22,10c2.962,4.621,11.748,0.463,16,0c-2.947,3.719-8.479,4.854-13,7
				c0.431,2.236,4.929,0.405,7,1c-3.103,3.896-8.556,5.444-12,9c-2.476-0.965,1.378-3.84,0-7c-8.151-0.039-18.843,5.742-32,4
				c11.254-7.08,21.708-14.959,26-29C560.586,341.291,568.135,342.975,579.407,343z"/>
			<path fill-rule="evenodd" clip-rule="evenodd" fill="#FFFFFF" d="M589.407,363c0,6.334,0,12.666,0,19
				c-8.74-0.593-19.899,1.232-27-1c10.401-4.266,19.752-9.581,26-18C588.74,363,589.074,363,589.407,363z"/>
			<path fill-rule="evenodd" clip-rule="evenodd" fill="#FFFFFF" d="M582.407,391c-6.454,3.066-15.3,2.541-23,2
				c-0.4,5.749,14.085,5.237,23,5c-5.905,3.762-13.855,5.478-23,6c0.14,4.527,6.782,2.551,11,3c-1.219,2.781-6.143,1.857-10,2
				c-0.668,4.335,4.642,2.692,8,3c-11.429,7.795-25.191-5.447-38-6c8.53-5.803,17.255-11.411,23-20
				C565.291,385.45,573.087,388.986,582.407,391z"/>
			<path fill-rule="evenodd" clip-rule="evenodd" fill="#FFFFFF" d="M589.407,407c0,3,0,6,0,9c-4.792,0.697-9.884,3.613-14,2
				c4.149-3.851,9.938-6.062,13-11C588.74,407,589.074,407,589.407,407z"/>
			<path fill-rule="evenodd" clip-rule="evenodd" fill="#FFFFFF" d="M453.407,411c3.51,0.789,1.155,3.498,0,5
				C450.473,415.15,454.708,413.483,453.407,411z"/>
			<path fill-rule="evenodd" clip-rule="evenodd" fill="#FFFFFF" d="M582.407,429c-4.641,1.946-15.245,1.266-20,0
				c1.217,6.116,9.129,5.537,15,7c-3.983,2.35-10.354,2.312-16,3c1.419,2.914,4.213,4.454,9,4c-9.581,5.361-24.789-1.906-35-5
				c8.229-4.438,19.435-5.898,23-15C568.583,422.823,574.325,427.082,582.407,429z"/>
			<path fill-rule="evenodd" clip-rule="evenodd" fill="#FFFFFF" d="M469.407,431c1.759,0.241,2.279,1.721,2,4
				c-1.71-0.044-2.59,0.743-3,2C465.494,435.598,470.179,433.555,469.407,431z"/>
			<path fill-rule="evenodd" clip-rule="evenodd" fill="#FFFFFF" d="M567.407,464c-4.333,0-8.667,0-13,0
				c1.121,4.213,7.486,3.18,11,5c-4.534,2.133-11.014,2.32-17,3c1.383,3.617,8.745,1.255,12,3c-12.184,4.818-24.796-1.823-32-8
				c11.638-2.028,23.463-3.87,29-12C561.575,457.166,564.901,460.172,567.407,464z"/>
			<path fill-rule="evenodd" clip-rule="evenodd" fill="#FFFFFF" d="M474.407,460c2.487,0.15,0.292,3.387,0,4
				C471.412,463.342,475.363,461.862,474.407,460z"/>
			<path fill-rule="evenodd" clip-rule="evenodd" fill="#FFFFFF" d="M583.407,462c-0.169-2.169,3.547-0.453,5-1
				C588.576,463.169,584.86,461.453,583.407,462z"/>
			<path fill-rule="evenodd" clip-rule="evenodd" fill="#FFFFFF" d="M589.407,467c0,3,0,6,0,9c-3.099-0.483-4.13,3.069,0,2
				c0,1,0,2,0,3c-6.281,1.491-15.556,3.835-22,2c8.653-3.68,18.254-6.413,21-16C588.74,467,589.074,467,589.407,467z"/>
			<path fill-rule="evenodd" clip-rule="evenodd" d="M589.407,476c0,0.667,0,1.333,0,2C585.277,479.069,586.308,475.517,589.407,476
				z"/>
			<path fill-rule="evenodd" clip-rule="evenodd" fill="#FFFFFF" d="M302.407,484c2.695-2.305,9.645-0.355,14-1
				c-0.084,3.582-1.555,5.778-2,9C310.175,489.564,307.045,486.027,302.407,484z"/>
			<path fill-rule="evenodd" clip-rule="evenodd" fill="#FFFFFF" d="M589.407,488c0,1,0,2,0,3c-1.161-0.839-2.681-1.319-5-1
				C584.554,487.813,586.926,487.853,589.407,488z"/>
			<path fill-rule="evenodd" clip-rule="evenodd" d="M360.407,510c-4.166-1.501-4.248-7.085-9-8c-3.8,0.2-3.795,4.205-8,4
				c-5.515-0.729-8.416-3.322-9-7C331.381,479.927,369.028,492.385,360.407,510z"/>
			<path fill-rule="evenodd" clip-rule="evenodd" fill="#FFFFFF" d="M313.407,504c-0.409,2.409,1.826,2.174,1,5
				c-2.503-0.83-3.928-2.739-7-3C308.327,504.254,310.534,503.793,313.407,504z"/>
			<path fill-rule="evenodd" clip-rule="evenodd" fill="#FFFFFF" d="M559.407,520c7.674-2.326,19.661-0.339,29-1
				C581.198,523.389,568.09,522.043,559.407,520z"/>
			<path fill-rule="evenodd" clip-rule="evenodd" fill="#FFFFFF" d="M586.407,235c-10.713,18.287-25.917,32.083-40,47
				c14.976-7.691,24.66-20.673,36-32c-9.424,17.577-28.55,34.115-43,50c-1.842-2.159-1.077-6.922-3-9
				c-11.779,10.437-25.131,20.734-37,32c-11.494,10.91-23.559,23.953-24,43c3.241-0.837,3.023-4.85,4-7
				c7.104-15.645,18.257-32.064,35-40c-5.437,8.564-11.779,16.221-18,24c7.928-4.405,15.132-9.535,21-16
				c-2.948,10.057-13.228,21.436-20,31c7.673,0.542,13.173-9.396,22-11c-3.195,3.472-8.17,5.164-11,9c3.845,1.15,10.871-3.108,14-6
				c-0.327,4.356-10.582,7.405-14,12c7.004,0.523,17.224-4.002,23-8c-1.461,5.217-14.171,7.82-18,14c8.476,0.809,11.297-4.037,18-5
				c-3.943,3.32-7.755,6.971-12,10c-4.426,3.158-9.618,4.758-13,9c6.171-0.175,15.645-5.68,27-4c-2.506,2.827-7.494,3.173-10,6
				c1.803,2.06,7.814-0.128,10-1c0.936,2.969-8.146,4.496-11,7c4.718,3.016,10.859-1.113,15-2c-3.154,5.179-12.461,4.205-16,9
				c3.499,5.158,9.648-1.637,14-2c-4.511,5.822-14.043,6.623-20,11c7.734,2.266,16.022,3.979,23,7c-4.861,3.705-13.308,1.165-20,1
				c3.449,5.551,12.488,5.512,21,6c-3.414,3.45-16.077,2.32-21,1c1.772,6.227,10.234,5.766,18,6c-5.788,4.212-15.772,4.228-24,6
				c7.65,6.35,21.166,6.833,29,13c-5.507,2.482-15.095,0.446-20-1c2.766,5.901,10.72,6.613,19,7c-2.218,4.116-11.61,1.057-17,2
				c0.226,6.108,10.224,2.443,14,5c-3.852,3.814-14.925,0.408-20,3c5.659,4.674,10.264,10.402,16,15c-3.827,2.124-8.386-3.587-13-4
				c-0.174,2.868,5.896,8.084,11,9c-5.969,2.281-13.076-2.908-18-5c1.514,4.486,5.111,6.889,9,9c-4.466,3.092-10.286-1.017-16,0
				c-0.467,4.818,6.443,10.877,10,15c-3.02,1.975-6.142-4.491-10-5c-1.678,4.702,5.721,8.928,10,11c-5.821,2.465-10.676-4.64-16-6
				c-1.3,5.01,5.798,6.811,4,9c-4.802,0.945-8.381-2.889-11-1c0.46,5.54,5.266,6.734,6,12c-4.673-0.327-4.327-5.673-9-6
				c0.103,5.564,3.975,7.358,7,10c-5.183,1.163-11.163-5.489-16-8c0.479,5.521,3.735,8.265,8,10c-4.339,1.976-8.426-4.885-14-5
				c-1.081,4.437,4.578,10.738,8,14c-4.288,1.595-9.199-4.78-12-8c-2.554,4.257,2.477,9.496,6,11c-5.145,2.451-9.098-4.882-13-7
				c-1.99,2.284,1.599,5.052,3,7c-2.992,1.618-6.844-4.459-11-5c-3.713,1.589,1.072,8.741,1,13c-2.408-1.926-3.319-5.348-6-7
				c-3.02,3.737,1.224,8.738,4,10c-4.325,0.637-12.21-3.774-14-9c-6.857,5.655,4.838,14.786,13,15c5.32,6.347,10.063,13.27,13,22
				c-3.596-1.737-4.98-5.687-8-8c-2.256,5.611,5.485,9.831,8,14c-4.474-0.875-10.6-8.723-15-13c0.249,6.084,4.343,8.324,7,12
				c-9.275-4.396-19.381-16.616-24-29c-2.874,11.216,5.618,19.709,8,29c-4.163-1.837-4.976-7.024-9-9c0.111,6.889,5.71,8.29,7,14
				c-3.854-2.146-5.771-6.229-9-9c-3.169,3.235,3.301,5.316,3,9c-7.322-4.344-11.011-12.322-13-22c-2.887,8.899,2.371,18.286,7,23
				c-29.373,0.902-55.142-10.379-78-30c-15.918-13.664-36.229-34.729-34-58c2.327-24.304,20.308-44.228,47-42
				c25.459,2.125,49.303,23.195,42,54c4.43,0.409,4.684-11.968,8-16c17.516-9.15,36.124-17.209,59-21
				c-6.776,43.557-61.467,39.2-70,81c-4.399-0.155-10.168-7.036-13-12c-13.746-24.091-13.248-68.679-54-66
				c-3.225,1.442-4.438,4.896-6,8c5.254-1.949,5.873-6.229,14-5c30.438,4.605,30.744,61.685,53,84c4.012,4.022,8.99,5.336,13,10
				c1.674-0.78-1.75-4.837-2-7c-3.414-37.052,27.557-43.082,47-58c15.844-12.156,30.582-36.112,24-70c-1.29-6.641-3.817-10.811-6-15
				c-7.56-14.508-25.689-29.216-22-54c2.918-19.603,19.702-45.47,32-58c27.035-27.545,63.193-50.989,88-76
				c-1.762,7.246-10.14,16.521-15,24c11.486-6.847,19.753-16.914,28-27C585.074,235,585.74,235,586.407,235z M334.407,499
				c0.584,3.678,3.485,6.271,9,7c4.205,0.205,4.2-3.8,8-4c4.752,0.915,4.834,6.499,9,8C369.028,492.385,331.381,479.927,334.407,499
				z"/>
			<path fill-rule="evenodd" clip-rule="evenodd" fill="#FFFFFF" d="M589.407,264c0,3.333,0,6.667,0,10
				c-4.622,2.044-7.565,5.769-11,9c4.361-0.973,7.2-3.466,11-5c0,5.333,0,10.667,0,16c-4.479,0.076,0.608-3.706-1-7
				c-8.218,4.06-17.553,8.686-27,12c-9.54,3.347-19.309,5.494-25,13c0.32-8.928,8.938-12.567,16-18c8.58-6.601,15.544-17.385,24-23
				C580.846,268.052,585.668,268.029,589.407,264z"/>
			<path fill-rule="evenodd" clip-rule="evenodd" fill="#FFFFFF" d="M589.407,498c-3.087,0.246-5.653,1.014-8,2
				c-0.146,2.812,2.449,2.884,5,3c-5.116,3.217-11.982,4.685-18,7c2.855,3.488,15.181-1.671,14,1c-10.034,2.633-20.412,4.922-34,4
				c12.557-3.776,26.301-6.366,30-19c-5.088-2.579-11.896-3.438-16-7c8.079-0.735,18.562,4.764,27,7
				C589.407,496.667,589.407,497.333,589.407,498z"/>
			<path fill-rule="evenodd" clip-rule="evenodd" fill="#FFFFFF" d="M476.407,254c2.173-5.286-1.591,8.98-2,10
				c-1.525,3.804-4.96,8.369-7,13c-5.299,12.028-12.871,27.121-20,37c15.059-12.276,27.081-36.251,36-58
				c-0.409-3.606,1.826-1.371,1,1c-12.126,36.208-32.259,64.408-53,92c-1.889-0.749-0.693-2.984-3-1c-4.828,2.789-11.01,6.891-15,12
				c-6.75,8.643-12.896,21.951-9,34c2.675-7.658,3.96-16.707,8-23c1.795,1.219-1.124,6.143,0,10c4.893-1.107,4.636-7.364,6-12
				c3.004,4.049-1.342,9.29,0,15c3.113-2.22,4.338-6.329,5-11c2.981,4.685-0.949,11.023-1,16c2.203,1.486,5.531-4.432,5-9
				c2.846,7.861-3.441,15.213-3,24c5.104-0.229,5.363-6.125,8-9c3.17-3.459,7.146-4.982,11-8c0.153,5.502-4.632,14.69-6,22
				c4.48-1.854,6.167-6.5,8-11c1.28,3.975-1.477,12.502-3,17c3.687-0.646,5.245-3.422,6-7c1.436,4.461-2.056,12.592-3,18
				c4.416,1.06,8.281-7.035,15-7c-2.649,3.684-6.305,6.362-7,12c4.143,1.158,6.614-7.153,12-8c-2.073,4.593-5.052,8.282-7,13
				c1.935,4.205,5.612-6.753,6-1c-2.176,3.824-4.678,7.322-5,13c4.918-1.082,5.919-6.08,12-6c-1.513,4.82-6.487,6.18-8,11
				c4.73,2.936,7.447-3.552,10-6c0.061,3.749-6.342,9.642-9,14c3.049,0.049,5.092-0.908,6-3c0.527,1.901-3.088,8.215-7,9
				c0.515,3.485,6.533,1.467,10,2c-1.983,5.386-8.259,3.88-13,5c-9.657,2.282-20.314,5.51-28,9c-2.638-2.582-1.383-5.579-2-8
				c-7.438-29.168-46.395-36.553-43-72c4.535-47.355,34.332-75.755,59-107c-0.392,4.625-5.204,13.451-9,18
				C455.405,298.998,464.555,275.148,476.407,254z"/>
			<path fill-rule="evenodd" clip-rule="evenodd" fill="#FFFFFF" d="M495.407,257c0.684,3.708-2.997,11.65-5,16
				c4.624-1.042,5.73-5.603,7-10c1.212,10.22-10.433,16.228-16,23C483.455,277.708,489.159,264.423,495.407,257z"/>
			<path fill-rule="evenodd" clip-rule="evenodd" fill="#FFFFFF" d="M498.407,288c-6.302,16.7-26.588,28.077-36,45
				c-2.156-0.844-0.844-5.156-3-6c-3.613-0.28-2.287,4.38-4,6c-6.881,5.452-12.133,12.533-19,18c10.848-21.486,31.922-41.41,50-59
				c0.508,5.191-7.251,10.737-9,17C486.796,304.39,492.529,296.122,498.407,288z"/>
			<path fill-rule="evenodd" clip-rule="evenodd" fill="#FFFFFF" d="M560.407,330c0.836,2.539-5.563,6.408-8,9
				c-10.926-2.396-20.688-1.336-31,1c9.262-12.738,16.187-27.813,34-32c-1.373,7.293-10.607,6.726-13,13
				c7.525-0.483,17.263-7.396,24-12c-2.453,7.887-15.767,13.562-23,20c6.825,1.145,15.25-4.739,21-8c-0.452,4.23-9.022,8.965-14,12
				C553.533,335.734,558.169,331.473,560.407,330z"/>
			<path fill-rule="evenodd" clip-rule="evenodd" fill="#FFFFFF" d="M448.407,347c-0.827,6.85-9.375,14.617-12,23
				c3.853,1.158,8.89-5.09,11-9c0.6,3.625-3.544,11.104-3,18c-4.474,1.193-7.717,3.617-10,7c-0.594-8.884-2.823-18.332-1-24
				C435.862,354.369,444.19,352.78,448.407,347z"/>
			<path fill-rule="evenodd" clip-rule="evenodd" fill="#FFFFFF" d="M515.407,492c8.381,0.078,25.532,1.087,29-7
				c5.567,2.1,9.979,5.354,15,8c-4.102,3.056-9.815-0.817-15,0c2.004,4.329,6.756,5.91,13,6c-3.537,3.463-12.526,1.474-19,2
				c0.141,4.526,5.312,4.021,10,4c-2.14,3.526-9.896,1.437-15,2C528.699,500.708,519.764,498.643,515.407,492z"/>
			<path fill-rule="evenodd" clip-rule="evenodd" fill="#FFFFFF" d="M515.407,522c-1.456,3.489,5.486,7.155,9,9
				c-4.054,3.008-8.759-1.874-13-2c1.283-5.321-7.272-7.556-9-13c6.406-1.969,16.077,1.221,21-4c4.555,0.779,5.266,5.4,9,7
				c-3.154,2.437-6.186-3.775-11-3c-0.722,3.396,3.184,5.589,6,8c1.751,1.499,8.008,4.552,4,3
				C524.471,526.936,520.977,523.43,515.407,522z"/>
			<path fill-rule="evenodd" clip-rule="evenodd" fill="#FFFFFF" d="M534.407,514c10.011,2.327,22.509,10.821,36,13
				c-2.434,2.69-7.983,0.041-11,0c1.079,4.921,7.053,4.947,13,5c-1.314,1.461-13.495,1.742-19,2c1.134,2.533,4.432,2.901,8,3
				c-2.386,3.109-14.647,1.297-22,1c3.826-4.174,11.096-4.904,13-11C546.876,525.059,540.05,518.824,534.407,514z"/>
			<path fill-rule="evenodd" clip-rule="evenodd" fill="#FFFFFF" d="M499.407,540c-2.443,0.638-0.151,4.675,1,5
				c-7.42,3.068-8.746-8.573-14-11c6.938-1.046,24.118-3.528,25,7c-4.206-1.461-6.143-5.19-11-6c2.134,5.199,5.869,8.798,10,12
				C507.25,548.124,502.864,541.901,499.407,540z"/>
			<path fill-rule="evenodd" clip-rule="evenodd" fill="#FFFFFF" d="M514.407,536c9.648,0.691,17.313,12.015,27,16
				c-3.719,2.674-7.85-2.783-12-3c1.592,5.742,7.904,6.762,13,9c-3.965,1.602-11.225-2.086-17-2c1.864,2.802,5.478,3.856,9,5
				c-12.015,3.34-21.37-4.624-31-7c4.645-1.318,15.103,1.51,20-2C520.236,546.838,517.775,540.965,514.407,536z"/>
			<path fill-rule="evenodd" clip-rule="evenodd" fill="#FFFFFF" d="M578.407,540c1.123,1.206-5.498,7.288-9,4
				C571.406,541.666,576.408,542.334,578.407,540z"/>
			<path fill-rule="evenodd" clip-rule="evenodd" fill="#FFFFFF" d="M473.407,549c-4.512,1.827,1.009,6.514,1,10
				c-7.511-2.156-11.668-7.665-12-17c3.816,2.518,8.204,4.463,15,4c0.77,5.23,2.268,9.732,6,12
				C480.116,558.928,475.277,552.819,473.407,549z"/>
			<path fill-rule="evenodd" clip-rule="evenodd" fill="#FFFFFF" d="M539.407,543c7.067-0.723,18.032,3.292,26,5
				C555.649,551.412,545.869,546.214,539.407,543z"/>
			<path fill-rule="evenodd" clip-rule="evenodd" fill="#FFFFFF" d="M479.407,547c-0.169-2.169,3.547-0.453,5-1
				c0.547,1.453-1.169,5.169,1,5C483.83,553.154,481.83,547.311,479.407,547z"/>
			<path fill-rule="evenodd" clip-rule="evenodd" fill="#FFFFFF" d="M461.407,556c6.762,6.417,20.979,14.311,33,9
				c-0.262-4.405-3.449-5.884-3-11c5.127,6.206,9.222,13.444,14,20c-3.615-1.385-5.603-4.397-10-5c-1.86,1.283,2.145,5.122,4,6
				c-3.575,1.872-7.902-4.07-13-4c-1.095,3.935,8.543,6.087,4,7C479.345,572.062,467.345,567.062,461.407,556z"/>
			<path fill-rule="evenodd" clip-rule="evenodd" fill="#FFFFFF" d="M500.407,558c4.844,1.501,14.32,7.004,20,11
				c-3.927,3.529-9.33-5.272-13-2C503.776,565.297,503.129,560.611,500.407,558z"/>
			<path fill-rule="evenodd" clip-rule="evenodd" fill="#FFFFFF" d="M507.407,569c1.069-1.401,11.036,6.526,9,5
				C512.286,573.454,510.555,570.519,507.407,569z"/>
			<path fill-rule="evenodd" clip-rule="evenodd" fill="#FFFFFF" d="M472.407,575c5.615,0.73,11.621,9.703,18,13
				C483.165,588.896,476.345,580.737,472.407,575z"/>
			<path fill-rule="evenodd" clip-rule="evenodd" fill="#FFFFFF" d="M589.407,442c0,3,0,6,0,9c-5.534,2.045-13.919,0.506-19-1
				C577.221,447.814,583.716,445.309,589.407,442z"/>
		</g>
	</g>
</g>
<circle fill="#FFFFFF" stroke="#000000" stroke-miterlimit="10" cx="388.44" cy="395.541" r="8.584"/>
</svg>
